<?xml version="1.0" encoding="UTF-8" standalone="no"?>
<!-- Created with Inkscape (http://www.inkscape.org/) -->

<svg
   width="211.15187mm"
   height="191.32159mm"
   viewBox="0 0 211.15187 191.32159"
   version="1.1"
   id="svg1"
   xml:space="preserve"
   xmlns:xlink="http://www.w3.org/1999/xlink"
   xmlns="http://www.w3.org/2000/svg"
   xmlns:svg="http://www.w3.org/2000/svg"><defs
     id="defs1"><linearGradient
       id="linearGradient4"><stop
         style="stop-color:#71a3f3;stop-opacity:1;"
         offset="0.0864799"
         id="stop4" /><stop
         style="stop-color:#415d8e;stop-opacity:1;"
         offset="0.23690623"
         id="stop7" /><stop
         style="stop-color:#111729;stop-opacity:1;"
         offset="0.81120586"
         id="stop5" /></linearGradient><radialGradient
       xlink:href="#linearGradient4"
       id="radialGradient5"
       cx="114.5292"
       cy="148.50015"
       fx="114.5292"
       fy="148.50015"
       r="106.07736"
       gradientTransform="matrix(1,0,0,0.90651695,0,13.882247)"
       gradientUnits="userSpaceOnUse" /></defs><g
     id="layer1"
     transform="translate(-8.9452501,-52.839207)"><rect
       style="display:none;opacity:1;fill:#111729;fill-opacity:1;fill-rule:evenodd;stroke:#111729;stroke-width:1.06;stroke-linecap:round;stroke-linejoin:round;stroke-opacity:1;paint-order:fill markers stroke"
       id="rect1"
       width="222.25"
       height="212.19583"
       x="3.3961864"
       y="42.402084" /><path
       style="fill:url(#radialGradient5);fill-opacity:1;stroke:none;stroke-opacity:1"
       d="m 22.789217,243.8294 c -0.873125,-0.21827 -2.599531,-0.89446 -3.836458,-1.50265 -1.783152,-0.87676 -2.719349,-1.57415 -4.520048,-3.36706 -1.896245,-1.88804 -2.473899,-2.67601 -3.499868,-4.77412 -3.5695869,-7.29984 -2.2674829,-15.36839 3.393765,-21.02964 3.211009,-3.21101 7.269373,-5.05351 11.78581,-5.35077 2.866633,-0.18867 5.284528,0.22445 8.262393,1.41171 l 2.325177,0.92703 8.919615,-8.67631 c 14.224039,-13.83604 24.816633,-24.11147 36.105551,-35.02447 5.78445,-5.59183 10.51719,-10.24716 10.51719,-10.34518 0,-0.098 -0.51679,-1.01642 -1.14842,-2.0409 -1.57607,-2.5563 -3.20819,-6.78364 -3.86203,-10.00298 -1.01254,-4.98553 -0.65619,-11.27636 0.91068,-16.07633 0.37521,-1.14943 0.58796,-2.17942 0.47276,-2.28885 -0.24991,-0.23742 -29.716727,-17.98797 -30.1262,-18.14776 -0.155879,-0.0608 -0.876777,0.36184 -1.601994,0.93926 -3.131311,2.49319 -7.011512,3.81863 -11.211464,3.82972 -5.150171,0.0136 -9.253281,-1.66568 -12.832292,-5.25189 -2.352412,-2.35715 -3.527175,-4.16744 -4.581157,-7.059479 -0.649764,-1.782905 -0.706963,-2.263157 -0.703815,-5.909368 0.0032,-3.669891 0.05828,-4.117945 0.731878,-5.950015 0.400649,-1.089696 1.112747,-2.634457 1.58244,-3.432803 1.106531,-1.880792 4.426974,-5.192832 6.328487,-6.312473 8.962763,-5.277417 20.432723,-2.14422 25.482472,6.960931 1.460308,2.633068 2.093879,5.141702 2.105683,8.337485 0.0056,1.527969 -0.08447,3.373438 -0.200251,4.101042 l -0.210513,1.322916 14.990162,8.995834 c 8.244594,4.94771 15.125884,9.02739 15.291764,9.06595 0.16588,0.0386 1.27458,-0.87428 2.46377,-2.02853 11.359946,-11.02615 28.723866,-12.09024 41.413546,-2.53789 l 2.30072,1.73191 22.48622,-17.932391 c 12.36743,-9.86281 22.49268,-18.110976 22.50056,-18.329257 0.008,-0.218282 -0.24395,-1.170782 -0.55961,-2.116667 -0.46539,-1.394543 -0.5746,-2.34527 -0.57743,-5.027083 -0.003,-3.020665 0.0671,-3.508188 0.81144,-5.625363 1.09703,-3.120526 2.23541,-4.95367 4.46309,-7.186942 2.19229,-2.197796 4.4603,-3.599912 7.39304,-4.570484 1.79884,-0.595316 2.5934,-0.702796 5.29166,-0.715801 3.53517,-0.01704 5.44075,0.376557 8.20102,1.693913 4.71769,2.251546 8.50431,6.942159 9.82564,12.171343 0.56705,2.244139 0.56337,6.21552 -0.008,8.591648 -1.22874,5.110196 -4.90634,9.739046 -9.55639,12.028258 -5.4137,2.665156 -12.63952,2.452088 -17.40993,-0.513366 -0.72233,-0.449025 -1.4682,-0.781142 -1.65748,-0.738037 -0.18929,0.0431 -10.2544,7.996028 -22.36693,17.673159 -12.11252,9.67715 -22.2046,17.73007 -22.42686,17.89539 -0.3517,0.26162 -0.24054,0.64829 0.85734,2.98237 0.69379,1.47498 1.5736,3.84002 1.95514,5.25566 0.63966,2.37334 0.6937,2.98619 0.69361,7.86555 -8e-5,4.51081 -0.0811,5.59896 -0.54935,7.37413 l -0.54925,2.08245 5.06445,2.45777 c 2.78545,1.35177 9.9396,4.8386 15.89811,7.74851 l 10.83366,5.29075 1.59969,-1.44763 c 1.97655,-1.78868 5.52423,-3.60051 8.22776,-4.20199 2.94962,-0.65623 7.21948,-0.42682 9.98419,0.53642 7.65754,2.66792 12.83814,10.44377 12.27199,18.41971 -0.32368,4.56006 -2.1309,8.53672 -5.33625,11.74207 -2.17061,2.17061 -4.45552,3.57724 -7.40428,4.55822 -1.85121,0.61585 -2.54803,0.7049 -5.55625,0.7101 -3.08759,0.005 -3.65619,-0.0694 -5.55625,-0.73039 -4.93977,-1.71843 -8.54475,-4.84167 -10.73025,-9.29637 -1.50521,-3.06806 -1.88379,-4.76205 -1.89216,-8.46667 l -0.007,-3.175 -7.44354,-3.61761 c -4.09395,-1.98969 -11.22003,-5.46409 -15.83573,-7.72091 l -8.39219,-4.10329 -1.32034,1.6593 c -4.24929,5.34015 -10.27735,9.20352 -17.0274,10.91281 l -2.83559,0.71805 v 14.11486 c 0,13.20745 0.0298,14.1248 0.46302,14.26942 4.52471,1.51041 8.71062,4.99523 10.87264,9.05158 2.66732,5.00442 2.6766,11.98684 0.0225,16.96637 -4.65681,8.73708 -15.36203,12.26516 -24.1905,7.97237 -7.04702,-3.42657 -11.182476,-10.90377 -10.22921,-18.49511 0.86627,-6.89841 5.09464,-12.36957 11.60446,-15.01521 l 1.53517,-0.6239 0.0684,-14.1357 0.0684,-14.1357 -2.44968,-0.56964 c -3.04462,-0.70798 -7.13444,-2.43241 -9.69034,-4.08581 -1.06884,-0.69142 -2.040126,-1.22164 -2.158426,-1.17826 -0.2985,0.10947 -1.3797,1.15122 -30.22245,29.11945 l -25.598627,24.82248 0.493085,0.98202 c 2.545104,5.06878 2.205396,12.12572 -0.829344,17.22837 -1.191641,2.00364 -4.237529,5.02787 -6.252447,6.20798 -2.982098,1.74657 -5.242793,2.36148 -9.021332,2.45381 -2.299899,0.0562 -3.79084,-0.0401 -4.894792,-0.31603 z"
       id="path1" /></g></svg>
